# xmcd CD database file
#
# Track frame offsets:
#	150
#	26471
#	52296
#	72777
#	95874
#	113227
#	132940
#	156094
#	183214
#	206770
#	221628
#	249072
#	269187
#	294715
#
# Disc length: 4283 seconds
#
# Revision: 0
# Processed by: cddbd v1.5.2PL0 Copyright (c) Steve Scherf et al.
# Submitted via: CDex 1.50
#
DISCID=dc10b90e
DTITLE=Varios - Jazz Magazine # 27 (Music Sounds 2000)
DYEAR=2004
DGENRE=Jazz
TTITLE0=Claudio Roditti - Light in the Dark
TTITLE1=Antonio Canelli - If You Love Somebody Set Them Free
TTITLE2=Carlos Sanchez - El Vuelo de los Gansos
TTITLE3=Cecilia Finotti - Tel Me Now
TTITLE4=The Postcard From Brazil - Bebedeira de Ritmo
TTITLE5=The Bad Plus - Layin' a Strip for the Higer Self-State Line
TTITLE6=Stefanie Schlesinger (say that you Love
TTITLE7=Peter Leitch - Allyson
TTITLE8=Alessandro Fabri - La Boca
TTITLE9=Marilia Vesco - Alexander's Ragtime Band
TTITLE10=Mark Murphy (bye Bye Blackbird
TTITLE11=Pablo Bobrowicky - Max--- Who?
TTITLE12=Rud-Lacy-Mengelberg-Carter-Bennink - Twelve Bars
TTITLE13=Paul Motian-Bill Frisell-Joe Lovano - Osmosis Part III
EXTD=YEAR: 2004
EXTT0=
EXTT1=
EXTT2=
EXTT3=
EXTT4=
EXTT5=
EXTT6=
EXTT7=
EXTT8=
EXTT9=
EXTT10=
EXTT11=
EXTT12=
EXTT13=
PLAYORDER=
